<mxfile host="65bd71144e">
    <diagram id="usrjO3PniHPc07IOxnv7" name="第 1 页">
        <mxGraphModel dx="1192" dy="830" grid="1" gridSize="10" guides="1" tooltips="1" connect="1" arrows="1" fold="1" page="1" pageScale="1" pageWidth="827" pageHeight="1169" math="0" shadow="0">
            <root>
                <mxCell id="0"/>
                <mxCell id="1" parent="0"/>
                <mxCell id="5" style="edgeStyle=none;html=1;exitX=0.5;exitY=1;exitDx=0;exitDy=0;entryX=0.461;entryY=0.013;entryDx=0;entryDy=0;entryPerimeter=0;" edge="1" parent="1" source="2" target="3">
                    <mxGeometry relative="1" as="geometry"/>
                </mxCell>
                <mxCell id="2" value="created" style="rounded=1;whiteSpace=wrap;html=1;" vertex="1" parent="1">
                    <mxGeometry x="150" y="10" width="110" height="30" as="geometry"/>
                </mxCell>
                <mxCell id="6" style="edgeStyle=none;html=1;exitX=0.5;exitY=1;exitDx=0;exitDy=0;" edge="1" parent="1" source="3" target="4">
                    <mxGeometry relative="1" as="geometry"/>
                </mxCell>
                <mxCell id="3" value="是否为互动/无延迟活动" style="rhombus;whiteSpace=wrap;html=1;" vertex="1" parent="1">
                    <mxGeometry x="122" y="70" width="180" height="80" as="geometry"/>
                </mxCell>
                <mxCell id="4" value="提示 文案" style="rounded=1;whiteSpace=wrap;html=1;" vertex="1" parent="1">
                    <mxGeometry x="172" y="190" width="80" height="40" as="geometry"/>
                </mxCell>
                <mxCell id="34" style="edgeStyle=none;html=1;exitX=0.5;exitY=1;exitDx=0;exitDy=0;entryX=0.5;entryY=0;entryDx=0;entryDy=0;" edge="1" parent="1" source="14" target="32">
                    <mxGeometry relative="1" as="geometry"/>
                </mxCell>
                <mxCell id="35" style="edgeStyle=none;html=1;exitX=0.5;exitY=1;exitDx=0;exitDy=0;entryX=0.5;entryY=0;entryDx=0;entryDy=0;" edge="1" parent="1" source="14" target="33">
                    <mxGeometry relative="1" as="geometry"/>
                </mxCell>
                <mxCell id="14" value="提示集合&lt;br&gt;gobackHome" style="rounded=1;whiteSpace=wrap;html=1;" vertex="1" parent="1">
                    <mxGeometry x="550" y="560" width="100" height="40" as="geometry"/>
                </mxCell>
                <mxCell id="22" value="Y" style="text;html=1;strokeColor=none;fillColor=none;align=center;verticalAlign=middle;whiteSpace=wrap;rounded=0;" vertex="1" parent="1">
                    <mxGeometry x="220" y="150" width="60" height="30" as="geometry"/>
                </mxCell>
                <mxCell id="25" value="监听消息" style="swimlane;childLayout=stackLayout;resizeParent=1;resizeParentMax=0;startSize=20;" vertex="1" parent="1">
                    <mxGeometry x="110" y="330" width="240" height="480" as="geometry"/>
                </mxCell>
                <mxCell id="26" value="GroupServer" style="swimlane;startSize=20;" vertex="1" parent="25">
                    <mxGeometry y="20" width="120" height="460" as="geometry"/>
                </mxCell>
                <mxCell id="7" value="开始分组讨论" style="rounded=1;whiteSpace=wrap;html=1;" vertex="1" parent="26">
                    <mxGeometry x="10" y="40" width="100" height="40" as="geometry"/>
                </mxCell>
                <mxCell id="8" value="切换小组" style="rounded=1;whiteSpace=wrap;html=1;" vertex="1" parent="26">
                    <mxGeometry x="10" y="100" width="100" height="40" as="geometry"/>
                </mxCell>
                <mxCell id="9" value="结束分组" style="rounded=1;whiteSpace=wrap;html=1;" vertex="1" parent="26">
                    <mxGeometry x="10" y="160" width="100" height="40" as="geometry"/>
                </mxCell>
                <mxCell id="10" value="解散小组" style="rounded=1;whiteSpace=wrap;html=1;" vertex="1" parent="26">
                    <mxGeometry x="10" y="220" width="100" height="40" as="geometry"/>
                </mxCell>
                <mxCell id="11" value="组内踢出" style="rounded=1;whiteSpace=wrap;html=1;" vertex="1" parent="26">
                    <mxGeometry x="10" y="275" width="100" height="40" as="geometry"/>
                </mxCell>
                <mxCell id="12" value="组长变更" style="rounded=1;whiteSpace=wrap;html=1;" vertex="1" parent="26">
                    <mxGeometry x="10" y="330" width="100" height="40" as="geometry"/>
                </mxCell>
                <mxCell id="27" value="MsgServer" style="swimlane;startSize=20;" vertex="1" parent="25">
                    <mxGeometry x="120" y="20" width="120" height="460" as="geometry"/>
                </mxCell>
                <mxCell id="13" value="结束直播" style="rounded=1;whiteSpace=wrap;html=1;" vertex="1" parent="27">
                    <mxGeometry x="10" y="40" width="100" height="40" as="geometry"/>
                </mxCell>
                <mxCell id="30" style="edgeStyle=none;html=1;" edge="1" parent="1" source="27">
                    <mxGeometry relative="1" as="geometry">
                        <mxPoint x="550" y="580" as="targetPoint"/>
                    </mxGeometry>
                </mxCell>
                <mxCell id="31" value="Allin" style="text;html=1;strokeColor=none;fillColor=none;align=center;verticalAlign=middle;whiteSpace=wrap;rounded=0;" vertex="1" parent="1">
                    <mxGeometry x="430" y="550" width="60" height="30" as="geometry"/>
                </mxCell>
                <mxCell id="32" value="toast" style="rounded=1;whiteSpace=wrap;html=1;" vertex="1" parent="1">
                    <mxGeometry x="500" y="690" width="80" height="30" as="geometry"/>
                </mxCell>
                <mxCell id="33" value="dialog" style="rounded=1;whiteSpace=wrap;html=1;" vertex="1" parent="1">
                    <mxGeometry x="650" y="690" width="80" height="30" as="geometry"/>
                </mxCell>
            </root>
        </mxGraphModel>
    </diagram>
</mxfile>